<?xml version="1.0" encoding="utf8" standalone="no"?>
<!DOCTYPE svg PUBLIC "-//W3C//DTD SVG 20010904//EN" "http://www.w3.org/TR/2001/REC-SVG-20010904/DTD/svg10.dtd">
<svg xmlns="http://www.w3.org/2000/svg">
<path d="m-37.40801,4.81522h30.59099a1.87414,1.87414 0 0,1 1.87414,1.87414v42.86179a1.87414,1.87414 0 0,1 -1.87414,1.87414h-30.59099a1.87414,1.87414 0 0,1 -1.87414-1.87414v-42.86179a1.87414,1.87414 0 0,1 1.87414-1.87414" fill="#b3b3b3" fill-rule="evenodd" stroke="#4c4c4c" stroke-linecap="round" stroke-linejoin="round" stroke-width="3.125" transform="matrix(.000000,-1.000000,1.000000,.000000,.000000,.000000)"/>
<path d="m10.95061,13.70618h33.62386" fill="none" stroke="#4c4c4c" stroke-linecap="round" stroke-linejoin="round" stroke-width="3.125"/>
<path d="m10.95061,22.2872h33.62386" fill="none" stroke="#4c4c4c" stroke-linecap="round" stroke-linejoin="round" stroke-width="3.125"/>
<path d="m10.95061,30.86821h20.35782" fill="none" stroke="#4c4c4c" stroke-linecap="round" stroke-linejoin="round" stroke-width="3.125"/>
<path d="m55.36557,30.06464c-1.74431.18263-5.98011,3.11397-11.98917,8.64429-14.64772-13.40471-18.17629-9.84555-4.66101,4.5442-13.40029,14.98351-9.75016,18.49224 4.6459,4.56113 14.71516,13.5391 17.71232,10.25676 4.342-4.56388 7.72477-8.61752 10.0998-13.44095 7.66229-13.18574z" fill="#7f7f7f" fill-rule="evenodd" stroke="#333" stroke-linecap="round" stroke-linejoin="round" stroke-width="2.5"/>
</svg>
